<svg width="24" height="25" viewBox="0 0 24 25" fill="none" xmlns="http://www.w3.org/2000/svg">
<path d="M17.3333 18.75V15H8V10H17.3333V6.25L24 12.5L17.3333 18.75ZM14.6667 0C15.3739 0 16.0522 0.263392 16.5523 0.732233C17.0524 1.20107 17.3333 1.83696 17.3333 2.5V5H14.6667V2.5H2.66667V22.5H14.6667V20H17.3333V22.5C17.3333 23.163 17.0524 23.7989 16.5523 24.2678C16.0522 24.7366 15.3739 25 14.6667 25H2.66667C1.95942 25 1.28115 24.7366 0.781048 24.2678C0.280951 23.7989 0 23.163 0 22.5V2.5C0 1.83696 0.280951 1.20107 0.781048 0.732233C1.28115 0.263392 1.95942 0 2.66667 0H14.6667Z" fill="black"/>
</svg>
